:SAMPLES-PER-SECOND 30
:FULLY-SPECIFIED
:DEGREES
734
root  -54.1447 34.7578 43.913 -172.281 1.98871 178.816
RightUpLeg  -12.2506 -20.5344 -8.13835
RightLeg  14.6234 0.319703 0.0618905
RightFoot  5.52566 0.0139983 0.234849
RightToes  -33.0071 -0.165167 -0.272313
Spine  0.282385 2.07466 -1.99228
Spine1  0.400097 4.53889 -3.47604
HEad  1.96754 0.491435 4.15622
LeftShoulder1  -1.94126e-019 -3.10601e-018 -2.51263e-017
LeftArm  -27.4268 -39.9056 -60.8408
LeftForeArm  141.353 -56.6736 -162.378
LeftHand  -0.372202 0.597469 9.02849
RightShoulder  -4.96962e-017 0 -2.36833e-017
RightArm  -27.1893 44.4391 56.779
RightForeArm  156.236 65.9216 156.552
RightHand  0.0158673 -5.71371 -12.3877
LeftUpLeg  -13.8234 6.61276 -3.59218
LeftLeg  13.416 3.17917 0.54317
LeftFoot  1.77075 0.00947398 0.293303
LeftToes  -47.4435 2.32378e-006 -5.43956e-008
735
root  -54.2429 34.7834 43.8033 -172.2 4.03313 178.802
RightUpLeg  -13.1457 -24.0217 -7.26857
RightLeg  14.6324 -0.753697 -0.145666
RightFoot  5.95699 0.022779 0.139647
RightToes  -32.5405 -0.161801 -0.269229
Spine  0.0413661 2.18348 -2.06061
Spine1  -0.0837846 4.76797 -3.59355
HEad  1.53767 -0.187439 5.73621
LeftShoulder1  -1.94126e-019 -3.10601e-018 -2.51263e-017
LeftArm  -20.0762 -43.2622 -64.1514
LeftForeArm  144.872 -54.5678 -163.865
LeftHand  -0.264239 2.71344 11.1366
RightShoulder  -4.96962e-017 0 -2.36833e-017
RightArm  -19.2719 47.6391 60.4339
RightForeArm  157.664 62.6309 159.724
RightHand  0.0590704 -6.05592 -13.5184
LeftUpLeg  -13.1709 7.92462 -3.8613
LeftLeg  12.5547 3.78015 0.587888
LeftFoot  1.73896 0.00721933 0.315884
LeftToes  -46.998 2.32378e-006 -5.43956e-008
736
root  -54.3 34.8123 43.6698 -172.259 5.78568 178.929
RightUpLeg  -13.3444 -25.9066 -6.49536
RightLeg  14.3715 -2.30648 -0.434827
RightFoot  6.12692 0.0356862 -0.0241324
RightToes  -29.5091 -0.140555 -0.248539
Spine  -0.182687 2.05685 -1.98789
Spine1  -0.509701 4.49187 -3.42582
HEad  1.21316 -0.854681 7.07274
LeftShoulder1  -1.94126e-019 -3.10601e-018 -2.51263e-017
LeftArm  -21.9775 -43.0939 -65.6361
LeftForeArm  141.969 -55.3468 -163.213
LeftHand  -0.420084 0.771842 10.5634
RightShoulder  -4.96962e-017 0 -2.36833e-017
RightArm  -14.944 47.8202 61.5286
RightForeArm  149.824 59.95 161.024
RightHand  1.8778 -14.4916 -23.7061
LeftUpLeg  -12.3739 8.46986 -3.88894
LeftLeg  11.7707 5.08067 0.719431
LeftFoot  2.04553 0.00199599 0.382623
LeftToes  -46.7694 2.32378e-006 -5.43956e-008
737
root  -54.3244 34.8287 43.4813 -172.75 7.3709 178.962
RightUpLeg  -12.3225 -25.2444 -6.64292
RightLeg  13.5612 -3.7623 -0.653812
RightFoot  6.31827 0.0487034 -0.198078
RightToes  -28.7854 -0.135647 -0.243436
Spine  -0.326779 1.7925 -1.9604
Spine1  -0.755545 3.93837 -3.37932
HEad  1.0112 -0.427641 7.91449
LeftShoulder1  -1.94126e-019 -3.10601e-018 -2.51263e-017
LeftArm  -26.7803 -42.4033 -63.3935
LeftForeArm  146.372 -56.122 -163.093
LeftHand  -0.425244 -2.25091 6.66438
RightShoulder  -4.96962e-017 0 -2.36833e-017
RightArm  -19.8914 45.6262 60.1571
RightForeArm  153.091 61.0671 160.501
RightHand  0.60031 -9.91994 -15.945
LeftUpLeg  -11.2172 7.77493 -3.84781
LeftLeg  11.285 7.15292 0.950644
LeftFoot  1.60684 0.000243613 0.394122
LeftToes  -42.8558 2.32378e-006 -5.43956e-008
738
root  -54.3129 34.8013 43.3003 -172.939 8.96896 178.887
RightUpLeg  -11.9087 -23.6851 -6.96234
RightLeg  13.0667 -4.38056 -0.722094
RightFoot  6.67661 0.0568017 -0.309286
RightToes  -30.9568 -0.150565 -0.25856
Spine  -0.680792 1.52539 -1.89044
Spine1  -1.39692 3.33863 -3.21728
HEad  0.86937 -1.06921 7.747
LeftShoulder1  -1.94126e-019 -3.10601e-018 -2.51263e-017
LeftArm  -32.6042 -41.0673 -59.8839
LeftForeArm  144.368 -56.3942 -162.77
LeftHand  -0.473101 -1.41306 8.23535
RightShoulder  -4.96962e-017 0 -2.36833e-017
RightArm  -25.3425 42.7344 55.8897
RightForeArm  156.765 62.8164 159.469
RightHand  0.261516 -7.52375 -15.2932
LeftUpLeg  -10.6768 7.17627 -4.00678
LeftLeg  11.311 9.35363 1.24555
LeftFoot  1.65982 -0.00490375 0.457774
LeftToes  -40.9155 2.32378e-006 -5.43956e-008
739
root  -54.2569 34.784 43.0697 -173.268 10.5531 178.962
RightUpLeg  -11.5578 -22.4596 -7.18533
RightLeg  13.1872 -3.94571 -0.659068
RightFoot  6.76098 0.0547935 -0.282563
RightToes  -33.0206 -0.165265 -0.272402
Spine  -0.957499 1.37909 -1.74144
Spine1  -1.87586 2.97515 -2.88548
HEad  0.49019 -1.74801 6.41907
LeftShoulder1  -1.94126e-019 -3.10601e-018 -2.51263e-017
LeftArm  -35.4184 -40.5638 -58.475
LeftForeArm  143.095 -56.4302 -162.644
LeftHand  -0.456083 0.691643 11.2838
RightShoulder  -4.96962e-017 0 -2.36833e-017
RightArm  -29.6861 40.1715 52.7074
RightForeArm  151.78 64.4279 157.521
RightHand  0.761768 -10.5407 -17.5703
LeftUpLeg  -10.135 6.36379 -3.94516
LeftLeg  11.9691 11.5217 1.66479
LeftFoot  0.885362 0.00055124 0.35672
LeftToes  -35.6792 2.32378e-006 -5.43956e-008
740
root  -54.1293 34.7893 42.8068 -173.744 11.8161 179.525
RightUpLeg  -10.049 -22.5302 -6.8762
RightLeg  11.6941 -2.67954 -0.37594
RightFoot  7.34377 0.0464333 -0.170548
RightToes  -33.6598 -0.169917 -0.27658
Spine  -1.17597 1.16712 -1.50322
Spine1  -2.25819 2.53088 -2.38568
HEad  0.800094 -2.15818 4.87764
LeftShoulder1  -1.94126e-019 -3.10601e-018 -2.51263e-017
LeftArm  -32.5821 -41.5384 -59.5059
LeftForeArm  142.541 -55.666 -163.052
LeftHand  -0.396009 0.965926 10.3727
RightShoulder  -4.96962e-017 0 -2.36833e-017
RightArm  -30.5169 40.0404 53.3441
RightForeArm  144.749 65.2288 155.968
RightHand  1.90611 -15.2448 -22.2921
LeftUpLeg  -9.52984 6.25232 -3.28875
LeftLeg  12.9378 12.816 2.06852
LeftFoot  0.864727 -0.00160875 0.374771
LeftToes  -33.2438 2.32378e-006 -5.43956e-008
741
root  -54.0144 34.7611 42.5871 -174.035 13.313 179.902
RightUpLeg  -9.68213 -22.5126 -6.56571
RightLeg  11.6916 -1.41586 -0.198309
RightFoot  7.37315 0.0345177 -0.0121964
RightToes  -33.1802 -0.170151 -0.276806
Spine  -1.36907 1.00831 -1.2906
Spine1  -2.60059 2.2301 -1.9423
HEad  0.943619 -2.83192 3.78159
LeftShoulder1  -1.94126e-019 -3.10601e-018 -2.51263e-017
LeftArm  -24.0209 -43.5158 -60.858
LeftForeArm  144.684 -53.7583 -164.264
LeftHand  -0.393631 0.069835 8.65006
RightShoulder  -4.96962e-017 0 -2.36833e-017
RightArm  -26.491 42.5516 55.4863
RightForeArm  146.998 64.0689 157.347
RightHand  2.60871 -17.6147 -24.3504
LeftUpLeg  -9.34549 5.83647 -2.93308
LeftLeg  14.3625 14.7452 2.74631
LeftFoot  0.565791 -0.000847067 0.333175
LeftToes  -30.7745 2.32378e-006 -5.43956e-008
742
root  -53.8664 34.7192 42.3455 -174.589 15.6533 -179.96
RightUpLeg  -9.83806 -21.1775 -6.52601
RightLeg  12.9178 -0.620173 -0.100259
RightFoot  6.90559 0.0260108 0.0939979
RightToes  -32.7615 -0.168283 -0.275143
Spine  -1.46675 1.07878 -1.07745
Spine1  -2.77878 2.37887 -1.50961
HEad  1.04818 -4.19731 4.51437
LeftShoulder1  -1.94126e-019 -3.10601e-018 -2.51263e-017
LeftArm  -19.7997 -44.5525 -63.0032
LeftForeArm  136.963 -54.1091 -163.526
LeftHand  -0.399354 1.46901 11.7527
RightShoulder  -4.96962e-017 0 -2.36833e-017
RightArm  -18.4426 45.659 58.0904
RightForeArm  154.029 61.3349 160.361
RightHand  1.4677 -12.9039 -22.5863
LeftUpLeg  -8.41669 6.47254 -2.71461
LeftLeg  14.9429 16.4706 3.22906
LeftFoot  -0.415359 -0.000377393 0.057364
LeftToes  -27.4088 2.32378e-006 -5.43956e-008
743
root  -53.6786 34.6726 42.0658 -175.307 18.4247 179.86
RightUpLeg  -10.5386 -19.5544 -6.79258
RightLeg  15.3286 0.255714 0.0525798
RightFoot  6.09029 0.017854 0.192779
RightToes  -32.9786 -0.16496 -0.272125
Spine  -1.52842 1.24259 -1.07451
Spine1  -2.90093 2.7038 -1.51611
HEad  0.577733 -5.35541 5.42227
LeftShoulder1  -1.94126e-019 -3.10601e-018 -2.51263e-017
LeftArm  -22.0648 -44.5858 -63.1766
LeftForeArm  144.292 -55.6166 -163.207
LeftHand  -0.392935 0.0991934 8.68003
RightShoulder  -4.96962e-017 0 -2.36833e-017
RightArm  -13.213 47.305 60.676
RightForeArm  146.58 59.45 161.064
RightHand  3.30177 -20.6913 -24.4884
LeftUpLeg  -7.20546 8.24377 -2.70324
LeftLeg  15.4304 17.6287 3.60187
LeftFoot  -0.633854 -0.00102496 -0.0237826
LeftToes  -26.6235 2.32378e-006 -5.43956e-008
